<svg width="76" height="93" viewBox="0 0 76 93" fill="none" xmlns="http://www.w3.org/2000/svg">
<rect width="76" height="58" fill="#00478C"/>
<rect x="1" y="58" width="75" height="2" fill="#00478C"/>
<rect x="2" y="60" width="73" height="2" fill="#00478C"/>
<rect x="3" y="62" width="71" height="2" fill="#00478C"/>
<path d="M3 64H74V66H3V64Z" fill="#00478C"/>
<rect x="4" y="66" width="69" height="2" fill="#00478C"/>
<rect x="6" y="68" width="66" height="2" fill="#00478C"/>
<rect x="7" y="70" width="63" height="2" fill="#00478C"/>
<rect x="8" y="72" width="61" height="2" fill="#00478C"/>
<rect x="9" y="74" width="58" height="2" fill="#00478C"/>
<rect x="11" y="76" width="55" height="2" fill="#00478C"/>
<rect x="13" y="78" width="51" height="2" fill="#00478C"/>
<rect x="15" y="80" width="48" height="2" fill="#00478C"/>
<rect x="17" y="82" width="44" height="2" fill="#00478C"/>
<rect x="19" y="84" width="40" height="1" fill="#00478C"/>
<rect x="20" y="85" width="36" height="1" fill="#00478C"/>
<rect x="21" y="86" width="33" height="1" fill="#00478C"/>
<rect x="23" y="87" width="30" height="1" fill="#00478C"/>
<rect x="26" y="88" width="25" height="1" fill="#00478C"/>
<rect x="28" y="89" width="21" height="1" fill="#00478C"/>
<rect x="29" y="90" width="19" height="1" fill="#00478C"/>
<rect x="31" y="91" width="15" height="1" fill="#00478C"/>
<rect x="35" y="92" width="8" height="1" fill="#00478C"/>
<rect x="5" y="38" width="1" height="17" fill="white"/>
<rect x="6" y="35" width="1" height="22" fill="white"/>
<rect x="7" y="34" width="1" height="24" fill="white"/>
<rect x="8" y="32" width="1" height="27" fill="white"/>
<rect x="9" y="30" width="1" height="30" fill="white"/>
<rect x="10" y="28" width="1" height="32" fill="white"/>
<rect x="11" y="26" width="1" height="34" fill="white"/>
<rect x="12" y="26" width="1" height="34" fill="white"/>
<rect x="13" y="25" width="1" height="35" fill="white"/>
<rect x="14" y="25" width="1" height="34" fill="white"/>
<rect x="15" y="24" width="1" height="33" fill="white"/>
<rect x="16" y="24" width="1" height="32" fill="white"/>
<rect x="17" y="23" width="1" height="14" fill="white"/>
<rect x="18" y="23" width="1" height="13" fill="white"/>
<rect x="19" y="23" width="1" height="11" fill="white"/>
<rect x="20" y="22" width="1" height="11" fill="white"/>
<rect x="21" y="22" width="1" height="10" fill="white"/>
<rect x="22" y="22" width="1" height="10" fill="white"/>
<rect x="23" y="22" width="1" height="10" fill="white"/>
<rect x="24" y="22" width="1" height="10" fill="white"/>
<rect x="25" y="22" width="1" height="10" fill="white"/>
<rect x="26" y="22" width="1" height="10" fill="white"/>
<rect x="27" y="22" width="1" height="10" fill="white"/>
<rect x="28" y="22" width="1" height="10" fill="white"/>
<rect x="29" y="22" width="1" height="11" fill="white"/>
<rect x="30" y="22" width="1" height="12" fill="white"/>
<rect x="31" y="22" width="1" height="13" fill="white"/>
<rect x="32" y="23" width="1" height="13" fill="white"/>
<rect x="33" y="24" width="1" height="13" fill="white"/>
<rect x="34" y="24" width="1" height="17" fill="white"/>
<rect x="34" y="45" width="1" height="11" fill="#FFAB0B"/>
<rect x="34" y="45" width="1" height="11" fill="#FFAB0B"/>
<rect x="34" y="45" width="1" height="11" fill="#FFAB0B"/>
<rect x="35" y="46" width="1" height="12" fill="#FFAB0B"/>
<rect x="35" y="46" width="1" height="12" fill="#FFAB0B"/>
<rect x="35" y="46" width="1" height="12" fill="#FFAB0B"/>
<rect x="36" y="47" width="1" height="12" fill="#FFAB0B"/>
<rect x="36" y="47" width="1" height="12" fill="#FFAB0B"/>
<rect x="36" y="47" width="1" height="12" fill="#FFAB0B"/>
<rect x="37" y="48" width="1" height="12" fill="#FFAB0B"/>
<rect x="37" y="48" width="1" height="12" fill="#FFAB0B"/>
<rect x="37" y="48" width="1" height="12" fill="#FFAB0B"/>
<rect x="38" y="48" width="1" height="12" fill="#FFAB0B"/>
<rect x="38" y="48" width="1" height="12" fill="#FFAB0B"/>
<rect x="38" y="48" width="1" height="12" fill="#FFAB0B"/>
<rect x="39" y="48" width="1" height="12" fill="#FFAB0B"/>
<rect x="39" y="48" width="1" height="12" fill="#FFAB0B"/>
<rect x="39" y="48" width="1" height="12" fill="#FFAB0B"/>
<rect x="40" y="48" width="1" height="12" fill="#FFAB0B"/>
<rect x="40" y="48" width="1" height="12" fill="#FFAB0B"/>
<rect x="40" y="48" width="1" height="12" fill="#FFAB0B"/>
<rect x="41" y="48" width="1" height="11" fill="#FFAB0B"/>
<rect x="41" y="48" width="1" height="11" fill="#FFAB0B"/>
<rect x="41" y="48" width="1" height="11" fill="#FFAB0B"/>
<rect x="44" y="38" width="12" height="10" fill="#FFAB0B"/>
<rect x="44" y="38" width="12" height="10" fill="#FFAB0B"/>
<rect x="44" y="38" width="12" height="10" fill="#FFAB0B"/>
<rect width="18" height="10" transform="matrix(1 0 0 -1 38 20)" fill="#FFAB0B"/>
<rect width="18" height="10" transform="matrix(1 0 0 -1 38 20)" fill="#FFAB0B"/>
<rect width="18" height="10" transform="matrix(1 0 0 -1 38 20)" fill="#FFAB0B"/>
<rect x="42" y="48" width="1" height="10" fill="#FFAB0B"/>
<rect x="42" y="48" width="1" height="10" fill="#FFAB0B"/>
<rect x="42" y="48" width="1" height="10" fill="#FFAB0B"/>
<rect x="43" y="48" width="1" height="9" fill="#FFAB0B"/>
<rect x="43" y="48" width="1" height="9" fill="#FFAB0B"/>
<rect x="43" y="48" width="1" height="9" fill="#FFAB0B"/>
<rect x="56" y="37" width="1" height="11" fill="#FFAB0B"/>
<rect x="56" y="37" width="1" height="11" fill="#FFAB0B"/>
<rect x="56" y="37" width="1" height="11" fill="#FFAB0B"/>
<rect width="1" height="11" transform="matrix(1 0 0 -1 56 21)" fill="#FFAB0B"/>
<rect width="1" height="11" transform="matrix(1 0 0 -1 56 21)" fill="#FFAB0B"/>
<rect width="1" height="11" transform="matrix(1 0 0 -1 56 21)" fill="#FFAB0B"/>
<rect x="57" y="37" width="1" height="11" fill="#FFAB0B"/>
<rect x="57" y="37" width="1" height="11" fill="#FFAB0B"/>
<rect x="57" y="37" width="1" height="11" fill="#FFAB0B"/>
<rect width="1" height="11" transform="matrix(1 0 0 -1 57 21)" fill="#FFAB0B"/>
<rect width="1" height="11" transform="matrix(1 0 0 -1 57 21)" fill="#FFAB0B"/>
<rect width="1" height="11" transform="matrix(1 0 0 -1 57 21)" fill="#FFAB0B"/>
<rect x="58" y="36" width="1" height="11" fill="#FFAB0B"/>
<rect x="58" y="36" width="1" height="11" fill="#FFAB0B"/>
<rect x="58" y="36" width="1" height="11" fill="#FFAB0B"/>
<rect width="1" height="11" transform="matrix(1 0 0 -1 58 22)" fill="#FFAB0B"/>
<rect width="1" height="11" transform="matrix(1 0 0 -1 58 22)" fill="#FFAB0B"/>
<rect width="1" height="11" transform="matrix(1 0 0 -1 58 22)" fill="#FFAB0B"/>
<rect x="59" y="36" width="1" height="11" fill="#FFAB0B"/>
<rect x="59" y="36" width="1" height="11" fill="#FFAB0B"/>
<rect x="59" y="36" width="1" height="11" fill="#FFAB0B"/>
<rect width="1" height="11" transform="matrix(1 0 0 -1 59 22)" fill="#FFAB0B"/>
<rect width="1" height="11" transform="matrix(1 0 0 -1 59 22)" fill="#FFAB0B"/>
<rect width="1" height="11" transform="matrix(1 0 0 -1 59 22)" fill="#FFAB0B"/>
<rect x="60" y="35" width="1" height="12" fill="#FFAB0B"/>
<rect x="60" y="35" width="1" height="12" fill="#FFAB0B"/>
<rect x="60" y="35" width="1" height="12" fill="#FFAB0B"/>
<rect width="1" height="12" transform="matrix(1 0 0 -1 60 23)" fill="#FFAB0B"/>
<rect width="1" height="12" transform="matrix(1 0 0 -1 60 23)" fill="#FFAB0B"/>
<rect width="1" height="12" transform="matrix(1 0 0 -1 60 23)" fill="#FFAB0B"/>
<rect x="61" y="33" width="1" height="14" fill="#FFAB0B"/>
<rect x="61" y="33" width="1" height="14" fill="#FFAB0B"/>
<rect x="61" y="33" width="1" height="14" fill="#FFAB0B"/>
<rect width="1" height="14" transform="matrix(1 0 0 -1 61 25)" fill="#FFAB0B"/>
<rect width="1" height="14" transform="matrix(1 0 0 -1 61 25)" fill="#FFAB0B"/>
<rect width="1" height="14" transform="matrix(1 0 0 -1 61 25)" fill="#FFAB0B"/>
<rect x="63" y="13" width="1" height="32" fill="#FFAB0B"/>
<rect x="63" y="13" width="1" height="32" fill="#FFAB0B"/>
<rect x="63" y="13" width="1" height="32" fill="#FFAB0B"/>
<rect x="64.002" y="14" width="1" height="30.041" fill="#FFAB0B"/>
<rect x="64.002" y="14" width="1" height="30.041" fill="#FFAB0B"/>
<rect x="64.002" y="14" width="1" height="30.041" fill="#FFAB0B"/>
<rect x="65.0039" y="15" width="1" height="29.0361" fill="#FFAB0B"/>
<rect x="65.0039" y="15" width="1" height="29.0361" fill="#FFAB0B"/>
<rect x="65.0039" y="15" width="1" height="29.0361" fill="#FFAB0B"/>
<rect x="66.0059" y="16" width="0.99424" height="27.1543" fill="#FFAB0B"/>
<rect x="66.0059" y="16" width="0.99424" height="27.1543" fill="#FFAB0B"/>
<rect x="66.0059" y="16" width="0.99424" height="27.1543" fill="#FFAB0B"/>
<rect x="66.9951" y="16.001" width="1.011" height="24.9902" fill="#FFAB0B"/>
<rect x="66.9951" y="16.001" width="1.011" height="24.9902" fill="#FFAB0B"/>
<rect x="66.9951" y="16.001" width="1.011" height="24.9902" fill="#FFAB0B"/>
<rect x="68.002" y="17.9883" width="0.995774" height="22.0068" fill="#FFAB0B"/>
<rect x="68.002" y="17.9883" width="0.995774" height="22.0068" fill="#FFAB0B"/>
<rect x="68.002" y="17.9883" width="0.995774" height="22.0068" fill="#FFAB0B"/>
<rect x="69.002" y="20.0479" width="0.99674" height="18.9384" fill="#FFAB0B"/>
<rect x="69.002" y="20.0479" width="0.99674" height="18.9384" fill="#FFAB0B"/>
<rect x="69.002" y="20.0479" width="0.99674" height="18.9384" fill="#FFAB0B"/>
<rect x="70.002" y="21" width="0.99674" height="16" fill="#FFAB0B"/>
<rect x="70.002" y="21" width="0.99674" height="16" fill="#FFAB0B"/>
<rect x="70.002" y="21" width="0.99674" height="16" fill="#FFAB0B"/>
<rect x="71.002" y="21.9521" width="0.99674" height="13" fill="#FFAB0B"/>
<rect x="71.002" y="21.9521" width="0.99674" height="13" fill="#FFAB0B"/>
<rect x="71.002" y="21.9521" width="0.99674" height="13" fill="#FFAB0B"/>
<rect x="72.001" y="26" width="0.99674" height="5.99798" fill="#FFAB0B"/>
<rect x="72.001" y="26" width="0.99674" height="5.99798" fill="#FFAB0B"/>
<rect x="72.001" y="26" width="0.99674" height="5.99798" fill="#FFAB0B"/>
<rect x="62" y="12" width="1" height="34" fill="#FFAB0B"/>
<rect x="62" y="12" width="1" height="34" fill="#FFAB0B"/>
<rect x="62" y="12" width="1" height="34" fill="#FFAB0B"/>
<rect x="36" y="25" width="1" height="14" fill="white"/>
<rect x="37" y="26" width="1" height="12" fill="white"/>
<rect x="38" y="27" width="1" height="11" fill="white"/>
<rect x="39" y="28" width="1" height="10" fill="white"/>
<rect x="40" y="29" width="1" height="9" fill="white"/>
<rect x="41" y="30" width="1" height="8" fill="white"/>
<rect x="42" y="32" width="1" height="6" fill="white"/>
<rect x="43" y="34" width="1" height="4" fill="white"/>
<rect x="35" y="24" width="1" height="16" fill="white"/>
<rect x="37" y="10" width="1" height="10" fill="#FFAB0B"/>
<rect x="36" y="11" width="1" height="8" fill="#FFAB0B"/>
<rect x="35" y="12" width="1" height="6" fill="#FFAB0B"/>
<rect x="34" y="14" width="1" height="2" fill="#FFAB0B"/>
</svg>
