<svg width="91" height="93" viewBox="0 0 91 93" fill="none" xmlns="http://www.w3.org/2000/svg">
<rect x="39" width="15" height="1" fill="#F16924"/>
<rect width="15" height="1" transform="matrix(1 0 0 -1 39 93)" fill="#F16924"/>
<rect x="33" y="1" width="24" height="1" fill="#F16924"/>
<rect width="24" height="1" transform="matrix(1 0 0 -1 33 92)" fill="#F16924"/>
<rect x="30" y="2" width="31" height="1" fill="#F16924"/>
<rect width="31" height="1" transform="matrix(1 0 0 -1 30 91)" fill="#F16924"/>
<rect x="27" y="3" width="37" height="1" fill="#F16924"/>
<rect width="37" height="1" transform="matrix(1 0 0 -1 27 90)" fill="#F16924"/>
<rect x="24" y="4" width="43" height="1" fill="#F16924"/>
<rect width="43" height="1" transform="matrix(1 0 0 -1 24 89)" fill="#F16924"/>
<rect x="23" y="5" width="45" height="1" fill="#F16924"/>
<rect width="45" height="1" transform="matrix(1 0 0 -1 23 88)" fill="#F16924"/>
<rect x="21" y="6" width="49" height="1" fill="#F16924"/>
<rect width="49" height="1" transform="matrix(1 0 0 -1 21 87)" fill="#F16924"/>
<rect x="19" y="7" width="53" height="1" fill="#F16924"/>
<rect width="53" height="1" transform="matrix(1 0 0 -1 19 86)" fill="#F16924"/>
<rect x="18" y="8" width="55" height="1" fill="#F16924"/>
<rect width="55" height="1" transform="matrix(1 0 0 -1 18 85)" fill="#F16924"/>
<rect x="17" y="9" width="57" height="1" fill="#F16924"/>
<rect width="57" height="1" transform="matrix(1 0 0 -1 17 84)" fill="#F16924"/>
<rect x="16" y="10" width="59" height="1" fill="#F16924"/>
<rect width="59" height="1" transform="matrix(1 0 0 -1 16 83)" fill="#F16924"/>
<rect x="15" y="11" width="61" height="1" fill="#F16924"/>
<rect width="61" height="1" transform="matrix(1 0 0 -1 15 82)" fill="#F16924"/>
<rect x="14" y="12" width="63" height="1" fill="#F16924"/>
<rect width="63" height="1" transform="matrix(1 0 0 -1 14 81)" fill="#F16924"/>
<rect x="13" y="13" width="65" height="1" fill="#F16924"/>
<rect width="65" height="1" transform="matrix(1 0 0 -1 13 80)" fill="#F16924"/>
<rect x="12" y="14" width="67" height="1" fill="#F16924"/>
<rect width="67" height="1" transform="matrix(1 0 0 -1 12 79)" fill="#F16924"/>
<rect x="11" y="15" width="69" height="1" fill="#F16924"/>
<rect width="69" height="1" transform="matrix(1 0 0 -1 11 78)" fill="#F16924"/>
<rect x="10" y="16" width="71" height="1" fill="#F16924"/>
<rect width="71" height="1" transform="matrix(1 0 0 -1 10 77)" fill="#F16924"/>
<rect x="9" y="17" width="73" height="1" fill="#F16924"/>
<rect width="73" height="1" transform="matrix(1 0 0 -1 9 76)" fill="#F16924"/>
<rect x="8" y="18" width="75" height="1" fill="#F16924"/>
<rect width="75" height="1" transform="matrix(1 0 0 -1 8 75)" fill="#F16924"/>
<rect x="8" y="19" width="75" height="1" fill="#F16924"/>
<rect width="75" height="1" transform="matrix(1 0 0 -1 8 74)" fill="#F16924"/>
<rect x="7" y="20" width="77" height="1" fill="#F16924"/>
<rect width="77" height="1" transform="matrix(1 0 0 -1 7 73)" fill="#F16924"/>
<rect x="6" y="21" width="79" height="1" fill="#F16924"/>
<rect width="79" height="1" transform="matrix(1 0 0 -1 6 72)" fill="#F16924"/>
<rect x="5" y="22" width="80" height="1" fill="#F16924"/>
<rect width="80" height="1" transform="matrix(1 0 0 -1 5 71)" fill="#F16924"/>
<rect x="5" y="23" width="81" height="1" fill="#F16924"/>
<rect width="81" height="1" transform="matrix(1 0 0 -1 5 70)" fill="#F16924"/>
<rect x="4" y="24" width="82" height="1" fill="#F16924"/>
<rect width="82" height="1" transform="matrix(1 0 0 -1 4 69)" fill="#F16924"/>
<rect x="3" y="25" width="84" height="1" fill="#F16924"/>
<rect width="84" height="1" transform="matrix(1 0 0 -1 3 68)" fill="#F16924"/>
<rect x="3" y="26" width="84" height="1" fill="#F16924"/>
<rect width="84" height="1" transform="matrix(1 0 0 -1 3 67)" fill="#F16924"/>
<rect x="3" y="27" width="84" height="1" fill="#F16924"/>
<rect width="84" height="1" transform="matrix(1 0 0 -1 3 66)" fill="#F16924"/>
<rect x="2" y="28" width="86" height="1" fill="#F16924"/>
<rect width="86" height="1" transform="matrix(1 0 0 -1 2 65)" fill="#F16924"/>
<rect x="2" y="29" width="87" height="1" fill="#F16924"/>
<rect width="87" height="1" transform="matrix(1 0 0 -1 2 64)" fill="#F16924"/>
<rect x="2" y="30" width="87" height="1" fill="#F16924"/>
<rect width="87" height="1" transform="matrix(1 0 0 -1 2 63)" fill="#F16924"/>
<rect x="1" y="31" width="89" height="1" fill="#F16924"/>
<rect width="89" height="1" transform="matrix(1 0 0 -1 1 62)" fill="#F16924"/>
<rect x="1" y="32" width="89" height="1" fill="#F16924"/>
<rect width="89" height="1" transform="matrix(1 0 0 -1 1 61)" fill="#F16924"/>
<rect x="1" y="33" width="89" height="1" fill="#F16924"/>
<rect width="89" height="1" transform="matrix(1 0 0 -1 1 60)" fill="#F16924"/>
<rect x="1" y="34" width="89" height="1" fill="#F16924"/>
<rect width="89" height="1" transform="matrix(1 0 0 -1 1 59)" fill="#F16924"/>
<rect y="35" width="91" height="1" fill="#F16924"/>
<rect width="91" height="1" transform="matrix(1 0 0 -1 0 58)" fill="#F16924"/>
<rect y="36" width="91" height="1" fill="#F16924"/>
<rect width="91" height="1" transform="matrix(1 0 0 -1 0 57)" fill="#F16924"/>
<rect y="37" width="91" height="1" fill="#F16924"/>
<rect width="91" height="1" transform="matrix(1 0 0 -1 0 56)" fill="#F16924"/>
<rect y="38" width="91" height="1" fill="#F16924"/>
<rect width="91" height="1" transform="matrix(1 0 0 -1 0 55)" fill="#F16924"/>
<rect y="39" width="91" height="1" fill="#F16924"/>
<rect width="91" height="1" transform="matrix(1 0 0 -1 0 54)" fill="#F16924"/>
<rect y="40" width="91" height="1" fill="#F16924"/>
<rect width="91" height="1" transform="matrix(1 0 0 -1 0 53)" fill="#F16924"/>
<rect y="41" width="91" height="1" fill="#F16924"/>
<rect width="91" height="1" transform="matrix(1 0 0 -1 0 52)" fill="#F16924"/>
<rect y="42" width="91" height="1" fill="#F16924"/>
<rect y="43" width="91" height="1" fill="#F16924"/>
<rect y="44" width="91" height="1" fill="#F16924"/>
<rect y="45" width="91" height="1" fill="#F16924"/>
<rect y="46" width="91" height="1" fill="#F16924"/>
<rect y="47" width="91" height="1" fill="#F16924"/>
<rect y="48" width="91" height="1" fill="#F16924"/>
<rect y="49" width="91" height="1" fill="#F16924"/>
<rect y="50" width="91" height="1" fill="#F16924"/>
<rect x="45" y="5" width="1" height="1" fill="white"/>
<rect x="45" y="5" width="1" height="1" fill="white"/>
<rect x="45" y="5" width="1" height="1" fill="white"/>
<rect x="45" y="6" width="1" height="1" fill="white"/>
<rect x="45" y="6" width="1" height="1" fill="white"/>
<rect x="45" y="6" width="1" height="1" fill="white"/>
<rect x="44" y="7" width="2" height="1" fill="white"/>
<rect x="44" y="7" width="2" height="1" fill="white"/>
<rect x="44" y="7" width="2" height="1" fill="white"/>
<rect x="44" y="8" width="2" height="1" fill="white"/>
<rect x="44" y="8" width="2" height="1" fill="white"/>
<rect x="44" y="8" width="2" height="1" fill="white"/>
<rect x="44" y="9" width="2" height="1" fill="white"/>
<rect x="44" y="9" width="2" height="1" fill="white"/>
<rect x="44" y="9" width="2" height="1" fill="white"/>
<rect x="44" y="10" width="3" height="1" fill="white"/>
<rect x="44" y="10" width="3" height="1" fill="white"/>
<rect x="44" y="10" width="3" height="1" fill="white"/>
<rect x="44" y="11" width="3" height="1" fill="white"/>
<rect x="44" y="11" width="3" height="1" fill="white"/>
<rect x="44" y="11" width="3" height="1" fill="white"/>
<rect x="43" y="12" width="4" height="1" fill="white"/>
<rect x="43" y="12" width="4" height="1" fill="white"/>
<rect x="43" y="12" width="4" height="1" fill="white"/>
<rect x="43" y="13" width="4" height="1" fill="white"/>
<rect x="43" y="13" width="4" height="1" fill="white"/>
<rect x="43" y="13" width="4" height="1" fill="white"/>
<rect x="43" y="14" width="5" height="1" fill="white"/>
<rect x="43" y="14" width="5" height="1" fill="white"/>
<rect x="43" y="14" width="5" height="1" fill="white"/>
<rect x="43" y="15" width="5" height="1" fill="white"/>
<rect x="43" y="15" width="5" height="1" fill="white"/>
<rect x="43" y="15" width="5" height="1" fill="white"/>
<rect x="43" y="16" width="5" height="1" fill="white"/>
<rect x="43" y="16" width="5" height="1" fill="white"/>
<rect x="43" y="16" width="5" height="1" fill="white"/>
<rect x="43" y="17" width="5" height="1" fill="white"/>
<rect x="43" y="17" width="5" height="1" fill="white"/>
<rect x="43" y="17" width="5" height="1" fill="white"/>
<rect x="42" y="18" width="7" height="1" fill="white"/>
<rect x="42" y="18" width="7" height="1" fill="white"/>
<rect x="42" y="18" width="7" height="1" fill="white"/>
<rect x="42" y="19" width="7" height="1" fill="white"/>
<rect x="42" y="19" width="7" height="1" fill="white"/>
<rect x="42" y="19" width="7" height="1" fill="white"/>
<rect x="42" y="20" width="7" height="1" fill="white"/>
<rect x="42" y="20" width="7" height="1" fill="white"/>
<rect x="42" y="20" width="7" height="1" fill="white"/>
<rect x="42" y="21" width="7" height="1" fill="white"/>
<rect x="42" y="21" width="7" height="1" fill="white"/>
<rect x="42" y="21" width="7" height="1" fill="white"/>
<rect x="42" y="22" width="7" height="1" fill="white"/>
<rect x="42" y="22" width="7" height="1" fill="white"/>
<rect x="42" y="22" width="7" height="1" fill="white"/>
<rect x="42" y="23" width="8" height="1" fill="white"/>
<rect x="42" y="23" width="8" height="1" fill="white"/>
<rect x="42" y="23" width="8" height="1" fill="white"/>
<rect x="42" y="24" width="8" height="1" fill="white"/>
<rect x="42" y="24" width="8" height="1" fill="white"/>
<rect x="42" y="24" width="8" height="1" fill="white"/>
<rect x="41" y="25" width="9" height="1" fill="white"/>
<rect x="41" y="25" width="9" height="1" fill="white"/>
<rect x="41" y="25" width="9" height="1" fill="white"/>
<rect x="41" y="26" width="9" height="1" fill="white"/>
<rect x="41" y="26" width="9" height="1" fill="white"/>
<rect x="41" y="26" width="9" height="1" fill="white"/>
<rect x="41" y="27" width="9" height="1" fill="white"/>
<rect x="41" y="27" width="9" height="1" fill="white"/>
<rect x="41" y="27" width="9" height="1" fill="white"/>
<rect x="41" y="28" width="9" height="1" fill="white"/>
<rect x="41" y="28" width="9" height="1" fill="white"/>
<rect x="41" y="28" width="9" height="1" fill="white"/>
<rect x="53" y="29" width="10" height="1" fill="white"/>
<rect x="53" y="29" width="10" height="1" fill="white"/>
<rect x="53" y="29" width="10" height="1" fill="white"/>
<rect x="53" y="28" width="10" height="1" fill="white"/>
<rect x="53" y="28" width="10" height="1" fill="white"/>
<rect x="53" y="28" width="10" height="1" fill="white"/>
<rect x="54" y="27" width="10" height="1" fill="white"/>
<rect x="54" y="27" width="10" height="1" fill="white"/>
<rect x="54" y="27" width="10" height="1" fill="white"/>
<rect x="55" y="26" width="9" height="1" fill="white"/>
<rect x="55" y="26" width="9" height="1" fill="white"/>
<rect x="55" y="26" width="9" height="1" fill="white"/>
<rect x="56" y="25" width="9" height="1" fill="white"/>
<rect x="56" y="25" width="9" height="1" fill="white"/>
<rect x="56" y="25" width="9" height="1" fill="white"/>
<rect x="58" y="23" width="7" height="1" fill="white"/>
<rect x="58" y="23" width="7" height="1" fill="white"/>
<rect x="58" y="23" width="7" height="1" fill="white"/>
<rect x="59" y="22" width="7" height="1" fill="white"/>
<rect x="59" y="22" width="7" height="1" fill="white"/>
<rect x="59" y="22" width="7" height="1" fill="white"/>
<rect x="60" y="21" width="6" height="1" fill="white"/>
<rect x="60" y="21" width="6" height="1" fill="white"/>
<rect x="60" y="21" width="6" height="1" fill="white"/>
<rect x="61" y="20" width="6" height="1" fill="white"/>
<rect x="61" y="20" width="6" height="1" fill="white"/>
<rect x="61" y="20" width="6" height="1" fill="white"/>
<rect x="62" y="19" width="5" height="1" fill="white"/>
<rect x="62" y="19" width="5" height="1" fill="white"/>
<rect x="62" y="19" width="5" height="1" fill="white"/>
<rect x="63" y="18" width="4" height="1" fill="white"/>
<rect x="63" y="18" width="4" height="1" fill="white"/>
<rect x="63" y="18" width="4" height="1" fill="white"/>
<rect x="64" y="17" width="3" height="1" fill="white"/>
<rect x="64" y="17" width="3" height="1" fill="white"/>
<rect x="64" y="17" width="3" height="1" fill="white"/>
<rect x="65" y="16" width="3" height="1" fill="white"/>
<rect x="65" y="16" width="3" height="1" fill="white"/>
<rect x="65" y="16" width="3" height="1" fill="white"/>
<rect x="66" y="15" width="2" height="1" fill="white"/>
<rect x="66" y="15" width="2" height="1" fill="white"/>
<rect x="66" y="15" width="2" height="1" fill="white"/>
<rect x="67" y="14" width="2" height="1" fill="white"/>
<rect x="67" y="14" width="2" height="1" fill="white"/>
<rect x="67" y="14" width="2" height="1" fill="white"/>
<rect x="68" y="13" width="2" height="1" fill="white"/>
<rect x="68" y="13" width="2" height="1" fill="white"/>
<rect x="68" y="13" width="2" height="1" fill="white"/>
<rect x="69" y="12" width="1" height="1" fill="white"/>
<rect x="69" y="12" width="1" height="1" fill="white"/>
<rect x="69" y="12" width="1" height="1" fill="white"/>
<rect x="57" y="24" width="8" height="1" fill="white"/>
<rect x="57" y="24" width="8" height="1" fill="white"/>
<rect x="57" y="24" width="8" height="1" fill="white"/>
<rect x="41" y="29" width="10" height="1" fill="white"/>
<rect x="41" y="29" width="10" height="1" fill="white"/>
<rect x="41" y="29" width="10" height="1" fill="white"/>
<rect x="40" y="30" width="12" height="1" fill="white"/>
<rect x="40" y="30" width="12" height="1" fill="white"/>
<rect x="40" y="30" width="12" height="1" fill="white"/>
<rect x="28" y="30" width="11" height="1" fill="white"/>
<rect x="28" y="30" width="11" height="1" fill="white"/>
<rect x="28" y="30" width="11" height="1" fill="white"/>
<rect x="28" y="29" width="11" height="1" fill="white"/>
<rect x="28" y="29" width="11" height="1" fill="white"/>
<rect x="28" y="29" width="11" height="1" fill="white"/>
<rect x="28" y="28" width="10" height="1" fill="white"/>
<rect x="28" y="28" width="10" height="1" fill="white"/>
<rect x="28" y="28" width="10" height="1" fill="white"/>
<rect x="12" y="36" width="18" height="1" fill="white"/>
<rect x="12" y="36" width="18" height="1" fill="white"/>
<rect x="12" y="36" width="18" height="1" fill="white"/>
<rect width="18" height="1" transform="matrix(-1 0 0 1 79 36)" fill="white"/>
<rect width="18" height="1" transform="matrix(-1 0 0 1 79 36)" fill="white"/>
<rect width="18" height="1" transform="matrix(-1 0 0 1 79 36)" fill="white"/>
<rect x="11" y="35" width="14" height="1" fill="white"/>
<rect x="11" y="35" width="14" height="1" fill="white"/>
<rect x="11" y="35" width="14" height="1" fill="white"/>
<rect width="14" height="1" transform="matrix(-1 0 0 1 80 35)" fill="white"/>
<rect width="14" height="1" transform="matrix(-1 0 0 1 80 35)" fill="white"/>
<rect width="14" height="1" transform="matrix(-1 0 0 1 80 35)" fill="white"/>
<rect x="9" y="34" width="12" height="1" fill="white"/>
<rect x="9" y="34" width="12" height="1" fill="white"/>
<rect x="9" y="34" width="12" height="1" fill="white"/>
<rect width="12" height="1" transform="matrix(-1 0 0 1 82 34)" fill="white"/>
<rect width="12" height="1" transform="matrix(-1 0 0 1 82 34)" fill="white"/>
<rect width="12" height="1" transform="matrix(-1 0 0 1 82 34)" fill="white"/>
<rect x="8" y="33" width="9" height="1" fill="white"/>
<rect x="8" y="33" width="9" height="1" fill="white"/>
<rect x="8" y="33" width="9" height="1" fill="white"/>
<rect width="9" height="1" transform="matrix(-1 0 0 1 83 33)" fill="white"/>
<rect width="9" height="1" transform="matrix(-1 0 0 1 83 33)" fill="white"/>
<rect width="9" height="1" transform="matrix(-1 0 0 1 83 33)" fill="white"/>
<rect x="7" y="32" width="6" height="1" fill="white"/>
<rect x="7" y="32" width="6" height="1" fill="white"/>
<rect x="7" y="32" width="6" height="1" fill="white"/>
<rect width="6" height="1" transform="matrix(-1 0 0 1 84 32)" fill="white"/>
<rect width="6" height="1" transform="matrix(-1 0 0 1 84 32)" fill="white"/>
<rect width="6" height="1" transform="matrix(-1 0 0 1 84 32)" fill="white"/>
<rect x="5" y="31" width="4" height="1" fill="white"/>
<rect x="5" y="31" width="4" height="1" fill="white"/>
<rect x="5" y="31" width="4" height="1" fill="white"/>
<rect width="4" height="1" transform="matrix(-1 0 0 1 86 31)" fill="white"/>
<rect width="4" height="1" transform="matrix(-1 0 0 1 86 31)" fill="white"/>
<rect width="4" height="1" transform="matrix(-1 0 0 1 86 31)" fill="white"/>
<rect x="4" y="30" width="1" height="1" fill="white"/>
<rect x="4" y="30" width="1" height="1" fill="white"/>
<rect x="4" y="30" width="1" height="1" fill="white"/>
<rect width="1" height="1" transform="matrix(-1 0 0 1 87 30)" fill="white"/>
<rect width="1" height="1" transform="matrix(-1 0 0 1 87 30)" fill="white"/>
<rect width="1" height="1" transform="matrix(-1 0 0 1 87 30)" fill="white"/>
<rect x="27" y="27" width="10" height="1" fill="white"/>
<rect x="27" y="27" width="10" height="1" fill="white"/>
<rect x="27" y="27" width="10" height="1" fill="white"/>
<rect x="27" y="26" width="9" height="1" fill="white"/>
<rect x="27" y="26" width="9" height="1" fill="white"/>
<rect x="27" y="26" width="9" height="1" fill="white"/>
<rect x="26" y="25" width="9" height="1" fill="white"/>
<rect x="26" y="25" width="9" height="1" fill="white"/>
<rect x="26" y="25" width="9" height="1" fill="white"/>
<rect x="26" y="24" width="8" height="1" fill="white"/>
<rect x="26" y="24" width="8" height="1" fill="white"/>
<rect x="26" y="24" width="8" height="1" fill="white"/>
<rect x="26" y="23" width="7" height="1" fill="white"/>
<rect x="26" y="23" width="7" height="1" fill="white"/>
<rect x="26" y="23" width="7" height="1" fill="white"/>
<rect x="25" y="22" width="7" height="1" fill="white"/>
<rect x="25" y="22" width="7" height="1" fill="white"/>
<rect x="25" y="22" width="7" height="1" fill="white"/>
<rect x="25" y="21" width="6" height="1" fill="white"/>
<rect x="25" y="21" width="6" height="1" fill="white"/>
<rect x="25" y="21" width="6" height="1" fill="white"/>
<rect x="24" y="20" width="6" height="1" fill="white"/>
<rect x="24" y="20" width="6" height="1" fill="white"/>
<rect x="24" y="20" width="6" height="1" fill="white"/>
<rect x="24" y="19" width="5" height="1" fill="white"/>
<rect x="24" y="19" width="5" height="1" fill="white"/>
<rect x="24" y="19" width="5" height="1" fill="white"/>
<rect x="23" y="18" width="4" height="1" fill="white"/>
<rect x="23" y="18" width="4" height="1" fill="white"/>
<rect x="23" y="18" width="4" height="1" fill="white"/>
<rect x="23" y="17" width="4" height="1" fill="white"/>
<rect x="23" y="17" width="4" height="1" fill="white"/>
<rect x="23" y="17" width="4" height="1" fill="white"/>
<rect x="23" y="16" width="3" height="1" fill="white"/>
<rect x="23" y="16" width="3" height="1" fill="white"/>
<rect x="23" y="16" width="3" height="1" fill="white"/>
<rect x="22" y="15" width="3" height="1" fill="white"/>
<rect x="22" y="15" width="3" height="1" fill="white"/>
<rect x="22" y="15" width="3" height="1" fill="white"/>
<rect x="22" y="14" width="2" height="1" fill="white"/>
<rect x="22" y="14" width="2" height="1" fill="white"/>
<rect x="22" y="14" width="2" height="1" fill="white"/>
<rect x="22" y="13" width="1" height="1" fill="white"/>
<rect x="22" y="13" width="1" height="1" fill="white"/>
<rect x="22" y="13" width="1" height="1" fill="white"/>
<rect x="21" y="12" width="1" height="1" fill="white"/>
<rect x="21" y="12" width="1" height="1" fill="white"/>
<rect x="21" y="12" width="1" height="1" fill="white"/>
<rect x="52" y="30" width="10" height="1" fill="white"/>
<rect x="52" y="30" width="10" height="1" fill="white"/>
<rect x="52" y="30" width="10" height="1" fill="white"/>
<rect x="29" y="31" width="33" height="1" fill="white"/>
<rect x="29" y="31" width="33" height="1" fill="white"/>
<rect x="29" y="31" width="33" height="1" fill="white"/>
<rect x="30" y="32" width="31" height="1" fill="white"/>
<rect x="30" y="32" width="31" height="1" fill="white"/>
<rect x="30" y="32" width="31" height="1" fill="white"/>
<rect x="30" y="33" width="31" height="1" fill="white"/>
<rect x="30" y="33" width="31" height="1" fill="white"/>
<rect x="30" y="33" width="31" height="1" fill="white"/>
<rect x="31" y="34" width="29" height="1" fill="white"/>
<rect x="31" y="34" width="29" height="1" fill="white"/>
<rect x="31" y="34" width="29" height="1" fill="white"/>
<rect x="31" y="35" width="29" height="1" fill="white"/>
<rect x="31" y="35" width="29" height="1" fill="white"/>
<rect x="31" y="35" width="29" height="1" fill="white"/>
<rect x="31" y="36" width="29" height="1" fill="white"/>
<rect x="31" y="36" width="29" height="1" fill="white"/>
<rect x="31" y="36" width="29" height="1" fill="white"/>
<rect x="14" y="37" width="63" height="1" fill="white"/>
<rect x="14" y="37" width="63" height="1" fill="white"/>
<rect x="14" y="37" width="63" height="1" fill="white"/>
<rect x="15" y="38" width="61" height="1" fill="white"/>
<rect x="15" y="38" width="61" height="1" fill="white"/>
<rect x="15" y="38" width="61" height="1" fill="white"/>
<rect x="16" y="39" width="58" height="1" fill="white"/>
<rect x="16" y="39" width="58" height="1" fill="white"/>
<rect x="16" y="39" width="58" height="1" fill="white"/>
<rect x="18" y="40" width="54" height="1" fill="white"/>
<rect x="18" y="40" width="54" height="1" fill="white"/>
<rect x="18" y="40" width="54" height="1" fill="white"/>
<rect x="19" y="41" width="52" height="1" fill="white"/>
<rect x="19" y="41" width="52" height="1" fill="white"/>
<rect x="19" y="41" width="52" height="1" fill="white"/>
<rect x="21" y="42" width="48" height="1" fill="white"/>
<rect x="21" y="42" width="48" height="1" fill="white"/>
<rect x="21" y="42" width="48" height="1" fill="white"/>
<rect x="23" y="43" width="45" height="1" fill="white"/>
<rect x="23" y="43" width="45" height="1" fill="white"/>
<rect x="23" y="43" width="45" height="1" fill="white"/>
<rect x="25" y="44" width="42" height="1" fill="white"/>
<rect x="25" y="44" width="42" height="1" fill="white"/>
<rect x="25" y="44" width="42" height="1" fill="white"/>
<rect x="27" y="45" width="38" height="1" fill="white"/>
<rect x="27" y="45" width="38" height="1" fill="white"/>
<rect x="27" y="45" width="38" height="1" fill="white"/>
<rect x="27" y="46" width="38" height="1" fill="white"/>
<rect x="27" y="46" width="38" height="1" fill="white"/>
<rect x="27" y="46" width="38" height="1" fill="white"/>
<rect x="26" y="47" width="40" height="1" fill="white"/>
<rect x="26" y="47" width="40" height="1" fill="white"/>
<rect x="26" y="47" width="40" height="1" fill="white"/>
<rect x="22" y="48" width="47" height="1" fill="white"/>
<rect x="22" y="48" width="47" height="1" fill="white"/>
<rect x="22" y="48" width="47" height="1" fill="white"/>
<rect x="19" y="49" width="52" height="1" fill="white"/>
<rect x="19" y="49" width="52" height="1" fill="white"/>
<rect x="19" y="49" width="52" height="1" fill="white"/>
<rect x="16" y="50" width="58" height="1" fill="white"/>
<rect x="16" y="50" width="58" height="1" fill="white"/>
<rect x="16" y="50" width="58" height="1" fill="white"/>
<rect x="13" y="51" width="64" height="1" fill="white"/>
<rect x="13" y="51" width="64" height="1" fill="white"/>
<rect x="13" y="51" width="64" height="1" fill="white"/>
<rect x="10" y="52" width="70" height="1" fill="white"/>
<rect x="10" y="52" width="70" height="1" fill="white"/>
<rect x="10" y="52" width="70" height="1" fill="white"/>
<rect x="7" y="53" width="76" height="1" fill="white"/>
<rect x="7" y="53" width="76" height="1" fill="white"/>
<rect x="7" y="53" width="76" height="1" fill="white"/>
<rect x="4" y="54" width="81" height="1" fill="white"/>
<rect x="4" y="54" width="81" height="1" fill="white"/>
<rect x="4" y="54" width="81" height="1" fill="white"/>
<rect x="1" y="55" width="87" height="1" fill="white"/>
<rect x="1" y="55" width="87" height="1" fill="white"/>
<rect x="1" y="55" width="87" height="1" fill="white"/>
<rect x="6" y="56" width="81" height="1" fill="white"/>
<rect x="6" y="56" width="81" height="1" fill="white"/>
<rect x="6" y="56" width="81" height="1" fill="white"/>
<rect x="10" y="57" width="29" height="1" fill="white"/>
<rect x="10" y="57" width="29" height="1" fill="white"/>
<rect x="10" y="57" width="29" height="1" fill="white"/>
<rect x="52" y="57" width="29" height="1" fill="white"/>
<rect x="52" y="57" width="29" height="1" fill="white"/>
<rect x="52" y="57" width="29" height="1" fill="white"/>
<rect x="18" y="58" width="19" height="1" fill="white"/>
<rect x="18" y="58" width="19" height="1" fill="white"/>
<rect x="18" y="58" width="19" height="1" fill="white"/>
<rect width="19" height="1" transform="matrix(-1 0 0 1 73 58)" fill="white"/>
<rect width="19" height="1" transform="matrix(-1 0 0 1 73 58)" fill="white"/>
<rect width="19" height="1" transform="matrix(-1 0 0 1 73 58)" fill="white"/>
<rect x="18" y="59" width="18" height="1" fill="white"/>
<rect x="18" y="59" width="18" height="1" fill="white"/>
<rect x="18" y="59" width="18" height="1" fill="white"/>
<rect width="18" height="1" transform="matrix(-1 0 0 1 73 59)" fill="white"/>
<rect width="18" height="1" transform="matrix(-1 0 0 1 73 59)" fill="white"/>
<rect width="18" height="1" transform="matrix(-1 0 0 1 73 59)" fill="white"/>
<rect x="19" y="60" width="16" height="1" fill="white"/>
<rect x="19" y="60" width="16" height="1" fill="white"/>
<rect x="19" y="60" width="16" height="1" fill="white"/>
<rect width="16" height="1" transform="matrix(-1 0 0 1 72 60)" fill="white"/>
<rect width="16" height="1" transform="matrix(-1 0 0 1 72 60)" fill="white"/>
<rect width="16" height="1" transform="matrix(-1 0 0 1 72 60)" fill="white"/>
<rect x="19" y="61" width="15" height="1" fill="white"/>
<rect x="19" y="61" width="15" height="1" fill="white"/>
<rect x="19" y="61" width="15" height="1" fill="white"/>
<rect width="15" height="1" transform="matrix(-1 0 0 1 72 61)" fill="white"/>
<rect width="15" height="1" transform="matrix(-1 0 0 1 72 61)" fill="white"/>
<rect width="15" height="1" transform="matrix(-1 0 0 1 72 61)" fill="white"/>
<rect x="20" y="62" width="14" height="1" fill="white"/>
<rect x="20" y="62" width="14" height="1" fill="white"/>
<rect x="20" y="62" width="14" height="1" fill="white"/>
<rect width="14" height="1" transform="matrix(-1 0 0 1 71 62)" fill="white"/>
<rect width="14" height="1" transform="matrix(-1 0 0 1 71 62)" fill="white"/>
<rect width="14" height="1" transform="matrix(-1 0 0 1 71 62)" fill="white"/>
<rect x="20" y="63" width="13" height="1" fill="white"/>
<rect x="20" y="63" width="13" height="1" fill="white"/>
<rect x="20" y="63" width="13" height="1" fill="white"/>
<rect width="13" height="1" transform="matrix(-1 0 0 1 71 63)" fill="white"/>
<rect width="13" height="1" transform="matrix(-1 0 0 1 71 63)" fill="white"/>
<rect width="13" height="1" transform="matrix(-1 0 0 1 71 63)" fill="white"/>
<rect x="20" y="64" width="13" height="1" fill="white"/>
<rect x="20" y="64" width="13" height="1" fill="white"/>
<rect x="20" y="64" width="13" height="1" fill="white"/>
<rect width="13" height="1" transform="matrix(-1 0 0 1 71 64)" fill="white"/>
<rect width="13" height="1" transform="matrix(-1 0 0 1 71 64)" fill="white"/>
<rect width="13" height="1" transform="matrix(-1 0 0 1 71 64)" fill="white"/>
<rect x="21" y="65" width="12" height="1" fill="white"/>
<rect x="21" y="65" width="12" height="1" fill="white"/>
<rect x="21" y="65" width="12" height="1" fill="white"/>
<rect width="12" height="1" transform="matrix(-1 0 0 1 70 65)" fill="white"/>
<rect width="12" height="1" transform="matrix(-1 0 0 1 70 65)" fill="white"/>
<rect width="12" height="1" transform="matrix(-1 0 0 1 70 65)" fill="white"/>
<rect x="22" y="66" width="11" height="1" fill="white"/>
<rect x="22" y="66" width="11" height="1" fill="white"/>
<rect x="22" y="66" width="11" height="1" fill="white"/>
<rect width="11" height="1" transform="matrix(-1 0 0 1 69 66)" fill="white"/>
<rect width="11" height="1" transform="matrix(-1 0 0 1 69 66)" fill="white"/>
<rect width="11" height="1" transform="matrix(-1 0 0 1 69 66)" fill="white"/>
<rect x="22" y="67" width="11" height="1" fill="white"/>
<rect x="22" y="67" width="11" height="1" fill="white"/>
<rect x="22" y="67" width="11" height="1" fill="white"/>
<rect width="11" height="1" transform="matrix(-1 0 0 1 69 67)" fill="white"/>
<rect width="11" height="1" transform="matrix(-1 0 0 1 69 67)" fill="white"/>
<rect width="11" height="1" transform="matrix(-1 0 0 1 69 67)" fill="white"/>
<rect x="23" y="68" width="10" height="1" fill="white"/>
<rect x="23" y="68" width="10" height="1" fill="white"/>
<rect x="23" y="68" width="10" height="1" fill="white"/>
<rect width="10" height="1" transform="matrix(-1 0 0 1 68 68)" fill="white"/>
<rect width="10" height="1" transform="matrix(-1 0 0 1 68 68)" fill="white"/>
<rect width="10" height="1" transform="matrix(-1 0 0 1 68 68)" fill="white"/>
<rect x="24" y="69" width="9" height="1" fill="white"/>
<rect x="24" y="69" width="9" height="1" fill="white"/>
<rect x="24" y="69" width="9" height="1" fill="white"/>
<rect width="9" height="1" transform="matrix(-1 0 0 1 67 69)" fill="white"/>
<rect width="9" height="1" transform="matrix(-1 0 0 1 67 69)" fill="white"/>
<rect width="9" height="1" transform="matrix(-1 0 0 1 67 69)" fill="white"/>
<rect x="25" y="70" width="9" height="1" fill="white"/>
<rect x="25" y="70" width="9" height="1" fill="white"/>
<rect x="25" y="70" width="9" height="1" fill="white"/>
<rect width="9" height="1" transform="matrix(-1 0 0 1 66 70)" fill="white"/>
<rect width="9" height="1" transform="matrix(-1 0 0 1 66 70)" fill="white"/>
<rect width="9" height="1" transform="matrix(-1 0 0 1 66 70)" fill="white"/>
<rect x="27" y="67" width="8" height="1" fill="white"/>
<rect x="27" y="67" width="8" height="1" fill="white"/>
<rect x="27" y="67" width="8" height="1" fill="white"/>
<rect width="8" height="1" transform="matrix(-1 0 0 1 66 67)" fill="white"/>
<rect width="8" height="1" transform="matrix(-1 0 0 1 66 67)" fill="white"/>
<rect width="8" height="1" transform="matrix(-1 0 0 1 66 67)" fill="white"/>
<rect x="28" y="68" width="7" height="1" fill="white"/>
<rect x="28" y="68" width="7" height="1" fill="white"/>
<rect x="28" y="68" width="7" height="1" fill="white"/>
<rect width="7" height="1" transform="matrix(-1 0 0 1 65 68)" fill="white"/>
<rect width="7" height="1" transform="matrix(-1 0 0 1 65 68)" fill="white"/>
<rect width="7" height="1" transform="matrix(-1 0 0 1 65 68)" fill="white"/>
<rect x="29" y="69" width="7" height="1" fill="white"/>
<rect x="29" y="69" width="7" height="1" fill="white"/>
<rect x="29" y="69" width="7" height="1" fill="white"/>
<rect width="7" height="1" transform="matrix(-1 0 0 1 64 69)" fill="white"/>
<rect width="7" height="1" transform="matrix(-1 0 0 1 64 69)" fill="white"/>
<rect width="7" height="1" transform="matrix(-1 0 0 1 64 69)" fill="white"/>
<rect x="31" y="70" width="6" height="1" fill="white"/>
<rect x="31" y="70" width="6" height="1" fill="white"/>
<rect x="31" y="70" width="6" height="1" fill="white"/>
<rect width="6" height="1" transform="matrix(-1 0 0 1 62 70)" fill="white"/>
<rect width="6" height="1" transform="matrix(-1 0 0 1 62 70)" fill="white"/>
<rect width="6" height="1" transform="matrix(-1 0 0 1 62 70)" fill="white"/>
<rect x="28" y="71" width="9" height="1" fill="white"/>
<rect x="28" y="71" width="9" height="1" fill="white"/>
<rect x="28" y="71" width="9" height="1" fill="white"/>
<rect width="7" height="1" transform="matrix(-1 0 0 1 63 71)" fill="white"/>
<rect width="7" height="1" transform="matrix(-1 0 0 1 63 71)" fill="white"/>
<rect width="7" height="1" transform="matrix(-1 0 0 1 63 71)" fill="white"/>
<rect x="34" y="72" width="5" height="1" fill="white"/>
<rect x="34" y="72" width="5" height="1" fill="white"/>
<rect x="34" y="72" width="5" height="1" fill="white"/>
<rect width="5" height="1" transform="matrix(-1 0 0 1 59 72)" fill="white"/>
<rect width="5" height="1" transform="matrix(-1 0 0 1 59 72)" fill="white"/>
<rect width="5" height="1" transform="matrix(-1 0 0 1 59 72)" fill="white"/>
<rect x="38" y="73" width="2" height="1" fill="white"/>
<rect x="38" y="73" width="2" height="1" fill="white"/>
<rect x="38" y="73" width="2" height="1" fill="white"/>
<rect width="2" height="1" transform="matrix(-1 0 0 1 55 73)" fill="white"/>
<rect width="2" height="1" transform="matrix(-1 0 0 1 55 73)" fill="white"/>
<rect width="2" height="1" transform="matrix(-1 0 0 1 55 73)" fill="white"/>
</svg>
