<svg width="98" height="58" viewBox="0 0 98 58" fill="none" xmlns="http://www.w3.org/2000/svg">
    <g clip-path="url(#clip0_128_19459)">
        <path d="M40.3531 1.4502H37.4707V4.3502H40.3531V1.4502Z" fill="#00A7E3" />
        <path d="M57.6469 56.5498H60.5293V53.6498H57.6469V56.5498Z" fill="#00A7E3" />
        <path d="M37.4702 2.8999H34.5879V5.7999H37.4702V2.8999Z" fill="#00A7E3" />
        <path d="M60.5298 55.1001H63.4121V52.2001H60.5298V55.1001Z" fill="#00A7E3" />
        <path d="M44.6761 8.7002H34.5879V7.2502H44.6761V8.7002Z" fill="#00A7E3" />
        <path d="M53.3239 49.2998H63.4121V50.7498H53.3239V49.2998Z" fill="#00A7E3" />
        <path d="M43.2349 7.25H34.5879V5.8H43.2349V7.25Z" fill="#00A7E3" />
        <path d="M54.7651 50.75H63.4121V52.2H54.7651V50.75Z" fill="#00A7E3" />
        <path d="M43.2354 5.7998H37.4707V4.3498H43.2354V5.7998Z" fill="#00A7E3" />
        <path d="M54.7646 52.2002H60.5293V53.6502H54.7646V52.2002Z" fill="#00A7E3" />
        <path d="M41.7937 4.3501H40.3525V2.9001H41.7937V4.3501Z" fill="#00A7E3" />
        <path d="M56.2063 53.6499H57.6475V55.0999H56.2063V53.6499Z" fill="#00A7E3" />
        <path d="M41.7937 2.8999H40.3525V1.4499H41.7937V2.8999Z" fill="#00A7E3" />
        <path d="M56.2063 55.1001H57.6475V56.5501H56.2063V55.1001Z" fill="#00A7E3" />
        <path d="M40.3533 1.4502H38.9121V0.000195265H40.3533V1.4502Z" fill="#00A7E3" />
        <path d="M57.6467 56.5498H59.0879V57.9998H57.6467V56.5498Z" fill="#00A7E3" />
        <path d="M34.5886 5.7998H33.1475V8.6998H34.5886V5.7998Z" fill="#00A7E3" />
        <path d="M63.4114 52.2002H64.8525V49.3002H63.4114V52.2002Z" fill="#00A7E3" />
        <path d="M44.6766 8.7002H31.7061V11.6002H44.6766V8.7002Z" fill="#00A7E3" />
        <path d="M53.3234 49.2998H66.2939V46.3998H53.3234V49.2998Z" fill="#00A7E3" />
        <path d="M44.6764 11.6001H30.2646V14.5001H44.6764V11.6001Z" fill="#00A7E3" />
        <path d="M53.3236 46.3999H67.7354V43.4999H53.3236V46.3999Z" fill="#00A7E3" />
        <path d="M30.2644 13.0498H28.8232V14.4998H30.2644V13.0498Z" fill="#00A7E3" />
        <path d="M67.7356 44.9502H69.1768V43.5002H67.7356V44.9502Z" fill="#00A7E3" />
        <path d="M46.1179 11.6001H44.6768V14.5001H46.1179V11.6001Z" fill="#00A7E3" />
        <path d="M51.8821 46.3999H53.3232V43.4999H51.8821V46.3999Z" fill="#00A7E3" />
        <path d="M47.5584 17.3999H46.1172V18.8499H47.5584V17.3999Z" fill="#00A7E3" />
        <path d="M50.4416 40.6001H51.8828V39.1501H50.4416V40.6001Z" fill="#00A7E3" />
        <path d="M47.5593 14.5H27.3828V17.4H47.5593V14.5Z" fill="#00A7E3" />
        <path d="M50.4407 43.5H70.6172V40.6H50.4407V43.5Z" fill="#00A7E3" />
        <path d="M46.1176 17.3999H24.5V20.2999H46.1176V17.3999Z" fill="#00A7E3" />
        <path d="M51.8824 40.6001H73.5V37.7001H51.8824V40.6001Z" fill="#00A7E3" />
        <path d="M46.1176 20.2998H24.5V21.7498H46.1176V20.2998Z" fill="#00A7E3" />
        <path d="M51.8824 37.7002H73.5V36.2502H51.8824V37.7002Z" fill="#00A7E3" />
        <path d="M44.6762 20.2998H23.0586V23.1998H44.6762V20.2998Z" fill="#00A7E3" />
        <path d="M53.3238 37.7002H74.9414V34.8002H53.3238V37.7002Z" fill="#00A7E3" />
        <path d="M43.2348 21.75H21.6172V24.65H43.2348V21.75Z" fill="#00A7E3" />
        <path d="M54.7652 36.25H76.3828V33.35H54.7652V36.25Z" fill="#00A7E3" />
        <path d="M41.7944 24.6499H20.1768V26.0999H41.7944V24.6499Z" fill="#00A7E3" />
        <path d="M56.2056 33.3501H77.8232V31.9001L56.2056 31.9001V33.3501Z" fill="#00A7E3" />
        <path d="M41.7944 26.1001H20.1768V27.5501H41.7944V26.1001Z" fill="#00A7E3" />
        <path d="M56.2056 31.8999L77.8232 31.8999V30.4499L56.2056 30.4499V31.8999Z" fill="#00A7E3" />
        <path d="M40.353 27.5498H18.7354V28.9998H40.353V27.5498Z" fill="#00A7E3" />
        <path d="M57.647 30.4502L79.2646 30.4502V29.0002L57.647 29.0002V30.4502Z" fill="#00A7E3" />
        <path d="M38.9116 29H17.2939V30.45H38.9116V29Z" fill="#00A7E3" />
        <path d="M59.0884 29L80.7061 29V27.55L59.0884 27.55V29Z" fill="#00A7E3" />
        <path d="M38.9116 30.4502H17.2939V31.9002H38.9116V30.4502Z" fill="#00A7E3" />
        <path d="M59.0884 27.5498L80.7061 27.5498V26.0998L59.0884 26.0998V27.5498Z" fill="#00A7E3" />
        <path d="M37.4702 31.8999H15.8525V33.3499H37.4702V31.8999Z" fill="#00A7E3" />
        <path d="M60.5298 26.1001L82.1475 26.1001V24.6501L60.5298 24.6501V26.1001Z" fill="#00A7E3" />
        <path d="M36.0298 33.3501H14.4121V34.8001H36.0298V33.3501Z" fill="#00A7E3" />
        <path d="M61.9702 24.6499L83.5879 24.6499V23.1999L61.9702 23.1999V24.6499Z" fill="#00A7E3" />
        <path d="M36.0298 34.7998H14.4121V36.2498H36.0298V34.7998Z" fill="#00A7E3" />
        <path d="M61.9702 23.2002L83.5879 23.2002V21.7502L61.9702 21.7502V23.2002Z" fill="#00A7E3" />
        <path d="M34.5884 36.25H12.9707V37.7H34.5884V36.25Z" fill="#00A7E3" />
        <path d="M63.4116 21.75L85.0293 21.75V20.3L63.4116 20.3V21.75Z" fill="#00A7E3" />
        <path d="M33.1469 37.7002H11.5293V39.1502H33.1469V37.7002Z" fill="#00A7E3" />
        <path d="M64.8531 20.2998L86.4707 20.2998V18.8498L64.8531 18.8498V20.2998Z" fill="#00A7E3" />
        <path d="M31.7058 39.1499H11.5293V40.5999H31.7058V39.1499Z" fill="#00A7E3" />
        <path d="M66.2942 18.8501L86.4707 18.8501V17.4001L66.2942 17.4001V18.8501Z" fill="#00A7E3" />
        <path d="M31.7055 40.6001H10.0879V42.0501H31.7055V40.6001Z" fill="#00A7E3" />
        <path d="M66.2945 17.3999L87.9121 17.3999V15.9499L66.2945 15.9499V17.3999Z" fill="#00A7E3" />
        <path d="M30.2651 42.0498H8.64746V43.4998H30.2651V42.0498Z" fill="#00A7E3" />
        <path d="M67.7349 15.9502L89.3525 15.9502V14.5002L67.7349 14.5002V15.9502Z" fill="#00A7E3" />
        <path d="M28.8237 43.5H7.20605V44.95H28.8237V43.5Z" fill="#00A7E3" />
        <path d="M69.1763 14.5L90.7939 14.5V13.05L69.1763 13.05V14.5Z" fill="#00A7E3" />
        <path d="M28.8237 44.9502H7.20605V46.4002H28.8237V44.9502Z" fill="#00A7E3" />
        <path d="M69.1763 13.0498L90.7939 13.0498V11.5998L69.1763 11.5998V13.0498Z" fill="#00A7E3" />
        <path d="M27.3823 46.3999H5.76465V47.8499H27.3823V46.3999Z" fill="#00A7E3" />
        <path d="M70.6177 11.6001L92.2354 11.6001V10.1501L70.6177 10.1501V11.6001Z" fill="#00A7E3" />
        <path d="M25.9409 47.8501H4.32324V49.3001H25.9409V47.8501Z" fill="#00A7E3" />
        <path d="M72.0591 10.1499L93.6768 10.1499V8.6999L72.0591 8.6999V10.1499Z" fill="#00A7E3" />
        <path d="M24.4997 49.2998H4.32324V50.7498H24.4997V49.2998Z" fill="#00A7E3" />
        <path d="M73.5003 8.7002L93.6768 8.7002V7.2502L73.5003 7.2502V8.7002Z" fill="#00A7E3" />
        <path d="M24.5005 50.75H2.88281V52.2H24.5005V50.75Z" fill="#00A7E3" />
        <path d="M73.4995 7.25L95.1172 7.25V5.8L73.4995 5.8V7.25Z" fill="#00A7E3" />
        <path d="M23.0593 52.2002H2.88281V53.6502H23.0593V52.2002Z" fill="#00A7E3" />
        <path d="M74.9407 5.7998L95.1172 5.7998V4.3498L74.9407 4.3498V5.7998Z" fill="#00A7E3" />
        <path d="M21.6179 53.6499H1.44141V55.0999H21.6179V53.6499Z" fill="#00A7E3" />
        <path d="M76.3821 5.7998L96.5586 5.7998V2.8998L76.3821 2.8998V5.7998Z" fill="#00A7E3" />
        <path d="M21.6176 55.1001H0V56.5501H21.6176V55.1001Z" fill="#00A7E3" />
        <path d="M76.3824 2.8999L98 2.8999V1.4499L76.3824 1.4499V2.8999Z" fill="#00A7E3" />
        <path d="M20.1765 56.5498H0V57.9998H20.1765V56.5498Z" fill="#00A7E3" />
        <path d="M77.8233 1.4502L96.5586 1.4502V0.000195265L77.8233 0.000195265V1.4502Z" fill="#00A7E3" />
    </g>
    <defs>
        <clipPath id="clip0_128_19459">
            <rect width="98" height="58" fill="white" />
        </clipPath>
    </defs>
</svg>
