<svg width="147" height="62" viewBox="0 0 147 62" fill="none" xmlns="http://www.w3.org/2000/svg">
<rect width="143" height="58" transform="translate(2 2)" fill="white"/>
<rect x="10" y="7" width="6" height="45" fill="#1D427C"/>
<rect x="16" y="7" width="1" height="13" fill="#1D427C"/>
<rect x="17" y="7" width="1" height="14" fill="#1D427C"/>
<rect x="18" y="8" width="1" height="14" fill="#1D427C"/>
<rect x="19" y="8" width="1" height="16" fill="#1D427C"/>
<rect x="20" y="9" width="1" height="16" fill="#1D427C"/>
<rect x="21" y="10" width="1" height="17" fill="#1D427C"/>
<rect x="22" y="11" width="1" height="17" fill="#1D427C"/>
<rect x="23" y="12" width="1" height="17" fill="#1D427C"/>
<rect x="24" y="13" width="1" height="18" fill="#1D427C"/>
<rect x="25" y="15" width="1" height="18" fill="#1D427C"/>
<rect x="26" y="17" width="1" height="17" fill="#1D427C"/>
<rect x="27" y="18" width="1" height="17" fill="#1D427C"/>
<rect x="28" y="19" width="1" height="18" fill="#1D427C"/>
<rect x="29" y="20" width="1" height="18" fill="#1D427C"/>
<rect x="30" y="22" width="1" height="18" fill="#1D427C"/>
<rect x="31" y="24" width="1" height="18" fill="#1D427C"/>
<rect x="32" y="25" width="1" height="18" fill="#1D427C"/>
<rect x="33" y="26" width="1" height="18" fill="#1D427C"/>
<rect x="34" y="28" width="1" height="18" fill="#1D427C"/>
<rect x="35" y="29" width="1" height="18" fill="#1D427C"/>
<rect x="36" y="30" width="1" height="18" fill="#1D427C"/>
<rect x="37" y="32" width="1" height="18" fill="#1D427C"/>
<rect x="38" y="33" width="1" height="18" fill="#1D427C"/>
<rect x="39" y="34" width="1" height="18" fill="#1D427C"/>
<rect x="40" y="36" width="1" height="16" fill="#1D427C"/>
<rect x="41" y="38" width="1" height="14" fill="#1D427C"/>
<rect x="42" y="40" width="1" height="12" fill="#1D427C"/>
<rect x="43" y="7" width="7" height="45" fill="#1D427C"/>
<rect x="58" y="7" width="10" height="34" fill="#1D427C"/>
<rect x="88" y="7" width="10" height="34" fill="#1D427C"/>
<rect x="59" y="41" width="9" height="1" fill="#1D427C"/>
<rect width="9" height="1" transform="matrix(-1 0 0 1 97 41)" fill="#1D427C"/>
<rect x="59" y="42" width="10" height="1" fill="#1D427C"/>
<rect width="10" height="1" transform="matrix(-1 0 0 1 97 42)" fill="#1D427C"/>
<rect x="59" y="43" width="10" height="1" fill="#1D427C"/>
<rect width="10" height="1" transform="matrix(-1 0 0 1 97 43)" fill="#1D427C"/>
<rect width="10" height="1" transform="matrix(-1 0 0 1 126 6)" fill="#1D427C"/>
<rect width="19" height="1" transform="matrix(-1 0 0 1 132 7)" fill="#1D427C"/>
<rect width="25" height="1" transform="matrix(-1 0 0 1 134 8)" fill="#1D427C"/>
<rect width="28" height="1" transform="matrix(-1 0 0 1 136 9)" fill="#1D427C"/>
<rect width="29" height="1" transform="matrix(-1 0 0 1 136 10)" fill="#1D427C"/>
<rect width="9" height="1" transform="matrix(-1 0 0 1 136 11)" fill="#1D427C"/>
<rect width="13" height="1" transform="matrix(-1 0 0 1 119 11)" fill="#1D427C"/>
<rect width="11" height="1" transform="matrix(-1 0 0 1 116 12)" fill="#1D427C"/>
<rect width="9" height="1" transform="matrix(-1 0 0 1 114 13)" fill="#1D427C"/>
<rect width="9" height="1" transform="matrix(-1 0 0 1 113 14)" fill="#1D427C"/>
<rect width="9" height="1" transform="matrix(-1 0 0 1 113 15)" fill="#1D427C"/>
<rect width="9" height="1" transform="matrix(-1 0 0 1 113 16)" fill="#1D427C"/>
<rect width="9" height="1" transform="matrix(-1 0 0 1 113 17)" fill="#1D427C"/>
<rect width="10" height="1" transform="matrix(-1 0 0 1 114 18)" fill="#1D427C"/>
<rect width="10" height="1" transform="matrix(-1 0 0 1 114 19)" fill="#1D427C"/>
<rect width="11" height="1" transform="matrix(-1 0 0 1 115 20)" fill="#1D427C"/>
<rect width="13" height="1" transform="matrix(-1 0 0 1 117 21)" fill="#1D427C"/>
<rect width="15" height="1" transform="matrix(-1 0 0 1 119 22)" fill="#1D427C"/>
<rect width="16" height="1" transform="matrix(-1 0 0 1 121 23)" fill="#1D427C"/>
<rect width="19" height="1" transform="matrix(-1 0 0 1 124 24)" fill="#1D427C"/>
<rect width="20" height="1" transform="matrix(-1 0 0 1 126 25)" fill="#1D427C"/>
<rect width="21" height="1" transform="matrix(-1 0 0 1 128 26)" fill="#1D427C"/>
<rect width="22" height="1" transform="matrix(-1 0 0 1 130 27)" fill="#1D427C"/>
<rect width="23" height="1" transform="matrix(-1 0 0 1 132 28)" fill="#1D427C"/>
<rect width="23" height="1" transform="matrix(-1 0 0 1 134 29)" fill="#1D427C"/>
<rect width="22" height="1" transform="matrix(-1 0 0 1 135 30)" fill="#1D427C"/>
<rect width="22" height="1" transform="matrix(-1 0 0 1 136 31)" fill="#1D427C"/>
<rect width="20" height="1" transform="matrix(-1 0 0 1 137 32)" fill="#1D427C"/>
<rect width="18" height="1" transform="matrix(-1 0 0 1 138 33)" fill="#1D427C"/>
<rect width="16" height="1" transform="matrix(-1 0 0 1 138 34)" fill="#1D427C"/>
<rect width="13" height="1" transform="matrix(-1 0 0 1 138 35)" fill="#1D427C"/>
<rect width="12" height="1" transform="matrix(-1 0 0 1 139 36)" fill="#1D427C"/>
<rect width="12" height="1" transform="matrix(-1 0 0 1 139 37)" fill="#1D427C"/>
<rect width="10" height="1" transform="matrix(-1 0 0 1 139 38)" fill="#1D427C"/>
<rect width="10" height="1" transform="matrix(-1 0 0 1 139 39)" fill="#1D427C"/>
<rect width="10" height="1" transform="matrix(-1 0 0 1 139 40)" fill="#1D427C"/>
<rect width="10" height="1" transform="matrix(-1 0 0 1 139 41)" fill="#1D427C"/>
<rect width="10" height="1" transform="matrix(-1 0 0 1 139 42)" fill="#1D427C"/>
<rect width="10" height="1" transform="matrix(-1 0 0 1 139 43)" fill="#1D427C"/>
<rect width="11" height="1" transform="matrix(-1 0 0 1 139 44)" fill="#1D427C"/>
<rect width="11" height="1" transform="matrix(-1 0 0 1 138 45)" fill="#1D427C"/>
<rect width="11" height="1" transform="matrix(-1 0 0 1 137 46)" fill="#1D427C"/>
<rect width="15" height="1" transform="matrix(-1 0 0 1 137 47)" fill="#1D427C"/>
<rect width="31" height="1" transform="matrix(-1 0 0 1 134 49)" fill="#1D427C"/>
<rect width="29" height="1" transform="matrix(-1 0 0 1 132 50)" fill="#1D427C"/>
<rect width="25" height="1" transform="matrix(-1 0 0 1 131 51)" fill="#1D427C"/>
<rect width="18" height="1" transform="matrix(-1 0 0 1 128 52)" fill="#1D427C"/>
<rect width="9" height="1" transform="matrix(-1 0 0 1 123 53)" fill="#1D427C"/>
<rect width="10" height="1" transform="matrix(-1 0 0 1 113 47)" fill="#1D427C"/>
<rect width="8" height="1" transform="matrix(-1 0 0 1 111 46)" fill="#1D427C"/>
<rect width="5" height="1" transform="matrix(-1 0 0 1 108 45)" fill="#1D427C"/>
<rect width="2" height="1" transform="matrix(-1 0 0 1 105 44)" fill="#1D427C"/>
<rect width="1" height="1" transform="matrix(-1 0 0 1 104 43)" fill="#1D427C"/>
<rect width="33" height="1" transform="matrix(-1 0 0 1 136 48)" fill="#1D427C"/>
<rect width="5" height="1" transform="matrix(-1 0 0 1 136 12)" fill="#1D427C"/>
<rect width="2" height="1" transform="matrix(-1 0 0 1 136 13)" fill="#1D427C"/>
<rect width="1" height="1" transform="matrix(-1 0 0 1 136 14)" fill="#1D427C"/>
<rect x="60" y="44" width="10" height="1" fill="#1D427C"/>
<rect width="10" height="1" transform="matrix(-1 0 0 1 96 44)" fill="#1D427C"/>
<rect x="60" y="45" width="10" height="1" fill="#1D427C"/>
<rect width="10" height="1" transform="matrix(-1 0 0 1 96 45)" fill="#1D427C"/>
<rect x="61" y="46" width="11" height="1" fill="#1D427C"/>
<rect width="11" height="1" transform="matrix(-1 0 0 1 95 46)" fill="#1D427C"/>
<rect x="62" y="47" width="11" height="1" fill="#1D427C"/>
<rect width="11" height="1" transform="matrix(-1 0 0 1 94 47)" fill="#1D427C"/>
<rect x="63" y="48" width="30" height="1" fill="#1D427C"/>
<rect x="64" y="49" width="28" height="1" fill="#1D427C"/>
<rect x="65" y="50" width="26" height="1" fill="#1D427C"/>
<rect x="66" y="51" width="24" height="1" fill="#1D427C"/>
<rect x="69" y="52" width="18" height="1" fill="#1D427C"/>
<rect x="72" y="53" width="12" height="1" fill="#1D427C"/>
<rect x="145" y="2" width="2" height="58" fill="white"/>
<rect y="2" width="2" height="58" fill="white"/>
<rect x="2" width="143" height="2" fill="white"/>
<rect x="3" y="60" width="143" height="2" fill="white"/>
</svg>
