<svg width="203" height="126" viewBox="0 0 203 126" fill="none" xmlns="http://www.w3.org/2000/svg">
<rect x="1.5" y="1.5" width="199.047" height="122.045" rx="17.5" stroke="white" stroke-width="3"/>
<path d="M26.7888 31.625V29H32.0388V31.625H34.6638V47.375H37.2888V57.875H34.6638V60.5H26.7888V57.875H24.1638V31.625H26.7888ZM47.7888 31.625V29H60.9138V31.625H63.5388V36.875H60.9138V39.5H55.6638V36.875H53.0388V39.5H55.6638V42.125H60.9138V44.75H63.5388V47.375H66.1638V55.25H63.5388V57.875H58.2888V60.5H42.5388V57.875H39.9138V50H42.5388V47.375H47.7888V50H53.0388V47.375H47.7888V44.75H45.1638V42.125H42.5388V34.25H45.1638V31.625H47.7888ZM81.9138 31.625V29H92.4138V31.625H95.0388V36.875H97.6638V57.875H95.0388V60.5H89.7888V57.875H87.1638V55.25H84.5388V52.625H79.2888V55.25H76.6638V57.875H71.4138V55.25H68.7888V47.375H71.4138V42.125H74.0388V36.875H76.6638V34.25H79.2888V31.625H81.9138ZM89.7888 39.5H84.5388V42.125H81.9138V44.75H87.1638V47.375H89.7888V39.5ZM108.164 31.625V29H118.664V31.625H123.914V34.25H126.539V42.125H123.914V44.75H126.539V47.375H129.164V57.875H123.914V60.5H102.914V57.875H100.289V44.75H102.914V36.875H105.539V31.625H108.164ZM116.039 36.875H113.414V39.5H110.789V42.125H116.039V36.875ZM116.039 47.375H110.789V52.625H116.039V47.375ZM139.664 31.625V29H155.414V31.625H158.039V36.875H155.414V39.5H144.914V42.125H152.789V47.375H150.164V50H142.289V52.625H155.414V57.875H152.789V60.5H134.414V57.875H131.789V44.75H134.414V36.875H137.039V31.625H139.664ZM165.914 31.625V29H171.164V31.625H173.789V39.5H171.164V44.75H168.539V50H173.789V52.625H176.414V57.875H173.789V60.5H160.664V57.875H158.039V44.75H160.664V36.875H163.289V31.625H165.914ZM33.3513 67.625V65H43.8513V67.625H46.4763V72.875H43.8513V75.5H35.9763V78.125H33.3513V83.375H35.9763V86H41.2263V83.375H46.4763V86H49.1013V93.875H43.8513V96.5H33.3513V93.875H28.1013V91.25H25.4763V86H22.8513V75.5H25.4763V70.25H28.1013V67.625H33.3513ZM54.3513 67.625V65H59.6013V67.625H62.2263V75.5H67.4763V67.625H70.1013V65H75.3513V70.25H77.9763V80.75H80.6013V93.875H77.9763V96.5H72.7263V93.875H70.1013V86H62.2263V93.875H59.6013V96.5H54.3513V93.875H51.7263V67.625H54.3513ZM93.7263 67.625V65H101.601V67.625H106.851V70.25H109.476V75.5H112.101V88.625H109.476V93.875H104.226V96.5H91.1013V93.875H85.8513V88.625H83.2263V75.5H85.8513V70.25H88.4763V67.625H93.7263ZM98.9763 72.875H93.7263V75.5H91.1013V80.75H93.7263V83.375H98.9763V80.75H101.601V75.5H98.9763V72.875ZM119.976 67.625V65H127.851V67.625H130.476V72.875H133.101V80.75H135.726V67.625H138.351V65H143.601V67.625H146.226V83.375H143.601V93.875H140.976V96.5H133.101V93.875H130.476V88.625H127.851V80.75H125.226V93.875H122.601V96.5H117.351V93.875H114.726V78.125H117.351V67.625H119.976ZM159.351 67.625V65H172.476V67.625H175.101V72.875H172.476V75.5H161.976V78.125H159.351V86H161.976V88.625H167.226V86H161.976V80.75H164.601V78.125H175.101V80.75H177.726V88.625H175.101V93.875H169.851V96.5H156.726V93.875H151.476V88.625H148.851V75.5H151.476V70.25H154.101V67.625H159.351Z" fill="white"/>
</svg>
