<svg width="1151" height="697" viewBox="0 0 1151 697" fill="none" xmlns="http://www.w3.org/2000/svg">
    <rect x="52" y="52" width="18" height="18" fill="#C0C3BA" />
    <rect x="52" y="627" width="18" height="18" fill="#C0C3BA" />
    <rect x="1082" y="627" width="18" height="18" fill="#C0C3BA" />
    <rect x="1082" y="52" width="18" height="18" fill="#C0C3BA" />
    <rect x="1082" y="70" width="17" height="557" fill="#536042" />
    <rect x="1082" y="70" width="17" height="557" fill="#536042" />
    <rect x="1082" y="70" width="17" height="557" fill="#536042" />
    <rect x="1082" y="70" width="17" height="557" fill="#536042" />
    <rect x="1099" y="70" width="1" height="556" fill="#7E8571" />
    <rect x="1099" y="70" width="1" height="557" fill="#7E8571" />
    <rect x="52" y="70" width="17" height="557" fill="#536042" />
    <rect x="52" y="70" width="17" height="557" fill="#536042" />
    <rect x="52" y="70" width="17" height="557" fill="#536042" />
    <rect x="52" y="70" width="17" height="557" fill="#536042" />
    <rect x="52" y="70" width="17" height="557" fill="#536042" />
    <rect x="52" y="70" width="17" height="557" fill="#536042" />
    <rect x="52" y="70" width="17" height="557" fill="#536042" />
    <rect x="52" y="70" width="17" height="557" fill="#536042" />
    <rect width="17" height="662" transform="matrix(-1 0 0 1 1151 17)" fill="#E0E0DC" />
    <rect x="17" y="35" width="35" height="507" fill="#C0C3BA" />
    <rect x="17" y="35" width="35" height="627" fill="#C0C3BA" />
    <rect x="70" y="645" width="17" height="1012" transform="rotate(-90 70 645)" fill="#536042" />
    <rect x="70" y="70" width="17" height="1012" transform="rotate(-90 70 70)" fill="#536042" />
    <rect x="70" y="70" width="17" height="1012" transform="rotate(-90 70 70)" fill="#536042" />
    <rect x="70" y="628" width="1" height="1012" transform="rotate(-90 70 628)" fill="#394529" />
    <rect x="70" y="628" width="1" height="1012" transform="rotate(-90 70 628)" fill="#394529" />
    <rect x="70" y="53" width="1" height="1012" transform="rotate(-90 70 53)" fill="#7E8571" />
    <rect x="70" y="53" width="1" height="1012" transform="rotate(-90 70 53)" fill="#7E8571" />
    <rect x="52" y="627" width="18" height="1" fill="#7E8571" />
    <rect x="69" y="70" width="1" height="557" fill="#394529" />
    <rect x="69" y="70" width="1" height="557" fill="#394529" />
    <rect x="69" y="70" width="1" height="557" fill="#394529" />
    <rect x="69" y="70" width="1" height="557" fill="#394529" />
    <rect x="69" y="627" width="1" height="18" fill="#7E8571" />
    <rect x="69" y="53" width="1" height="17" fill="#7E8571" />
    <rect x="69" y="53" width="1" height="17" fill="#7E8571" />
    <rect x="17" y="18" width="17" height="17" fill="#E0E0DC" />
    <rect x="18" y="18" width="17" height="17" fill="#E0E0DC" />
    <rect width="17" height="17" transform="matrix(-1 0 0 1 1134 18)" fill="#E0E0DC" />
    <rect x="17" y="662" width="16" height="17" fill="#E0E0DC" />
    <rect width="16" height="16" transform="matrix(-1 0 0 1 1134 663)" fill="#E0E0DC" />
    <rect x="17" y="18" width="18" height="1117" transform="rotate(-90 17 18)" fill="#E0E0DC" />
    <rect x="35" y="52" width="34" height="1082" transform="rotate(-90 35 52)" fill="#C0C3BA" />
    <rect x="33" y="679" width="34" height="1085" transform="rotate(-90 33 679)" fill="#C0C3BA" />
    <rect x="17" y="697" width="18" height="1117" transform="rotate(-90 17 697)" fill="#E0E0DC" />
    <rect y="17" width="17" height="662" fill="#E0E0DC" />
    <rect x="1100" y="35" width="34" height="628" fill="#C0C3BA" />
</svg>
