<svg width="1151" height="481" viewBox="0 0 1151 481" fill="none" xmlns="http://www.w3.org/2000/svg">
<rect x="52" y="52" width="18" height="18" fill="#C0C3BA"/>
<rect x="52" y="411" width="18" height="18" fill="#C0C3BA"/>
<rect x="1082" y="411" width="18" height="18" fill="#C0C3BA"/>
<rect x="1082" y="52" width="18" height="18" fill="#C0C3BA"/>
<rect x="70" y="429" width="17" height="1012" transform="rotate(-90 70 429)" fill="#5453A4"/>
<rect x="70" y="70" width="17" height="1012" transform="rotate(-90 70 70)" fill="#5453A4"/>
<rect x="70" y="70" width="17" height="1012" transform="rotate(-90 70 70)" fill="#5453A4"/>
<rect x="70" y="412" width="1" height="1012" transform="rotate(-90 70 412)" fill="#394529"/>
<rect x="70" y="412" width="1" height="1012" transform="rotate(-90 70 412)" fill="#394529"/>
<rect x="70" y="53" width="1" height="1012" transform="rotate(-90 70 53)" fill="#7E8571"/>
<rect x="70" y="53" width="1" height="1012" transform="rotate(-90 70 53)" fill="#7E8571"/>
<rect x="52" y="411" width="18" height="1" fill="#7E8571"/>
<rect x="69" y="411" width="1" height="18" fill="#7E8571"/>
<rect x="69" y="53" width="1" height="17" fill="#7E8571"/>
<rect x="69" y="53" width="1" height="17" fill="#7E8571"/>
<rect x="17" y="18" width="17" height="17" fill="#E0E0DC"/>
<rect x="18" y="18" width="17" height="17" fill="#E0E0DC"/>
<rect width="17" height="17" transform="matrix(-1 0 0 1 1134 18)" fill="#E0E0DC"/>
<rect x="17" y="446" width="16" height="17" fill="#E0E0DC"/>
<rect width="16" height="16" transform="matrix(-1 0 0 1 1134 447)" fill="#E0E0DC"/>
<rect x="17" y="18" width="18" height="1117" transform="rotate(-90 17 18)" fill="#E0E0DC"/>
<rect x="35" y="52" width="34" height="1082" transform="rotate(-90 35 52)" fill="#C0C3BA"/>
<rect x="33" y="463" width="34" height="1085" transform="rotate(-90 33 463)" fill="#C0C3BA"/>
<rect x="17" y="481" width="18" height="1117" transform="rotate(-90 17 481)" fill="#E0E0DC"/>
<rect x="1082" y="52.7891" width="17" height="376.116" fill="#5453A4"/>
<rect x="1082" y="52.7891" width="17" height="376.116" fill="#5453A4"/>
<rect x="1082" y="52.7891" width="17" height="376.116" fill="#5453A4"/>
<rect x="1082" y="52.7891" width="17" height="376.116" fill="#5453A4"/>
<rect x="1099" y="52.7891" width="1" height="375.441" fill="#7E8571"/>
<rect x="1099" y="52.7891" width="1" height="376.116" fill="#7E8571"/>
<rect x="52" y="52.7891" width="17" height="376.116" fill="#5453A4"/>
<rect x="52" y="52.7891" width="17" height="376.116" fill="#5453A4"/>
<rect x="52" y="52.7891" width="17" height="376.116" fill="#5453A4"/>
<rect x="52" y="52.7891" width="17" height="376.116" fill="#5453A4"/>
<rect x="52" y="52.7891" width="17" height="376.116" fill="#5453A4"/>
<rect x="52" y="52.7891" width="17" height="376.116" fill="#5453A4"/>
<rect x="52" y="52.7891" width="17" height="376.116" fill="#5453A4"/>
<rect x="52" y="52.7891" width="17" height="376.116" fill="#5453A4"/>
<rect width="17" height="447.018" transform="matrix(-1 0 0 1 1151 17)" fill="#E0E0DC"/>
<rect x="69" y="52.7891" width="1" height="376.116" fill="#394529"/>
<rect x="69" y="52.7891" width="1" height="376.116" fill="#394529"/>
<rect x="69" y="52.7891" width="1" height="376.116" fill="#394529"/>
<rect x="69" y="52.7891" width="1" height="376.116" fill="#394529"/>
<rect y="17" width="17" height="447.018" fill="#E0E0DC"/>
<rect x="1100" y="29.1543" width="34" height="424.059" fill="#C0C3BA"/>
<rect x="17" y="29.1543" width="35" height="423.384" fill="#C0C3BA"/>
</svg>
